# xmcd
#
# Track frame offsets: 
#        150
#        5045
#        30894
#        55245
#        76673
#        95017
#        117287
#        146306
#        174442
#        206241
#        231291
#        262789
#
# Disc length: 4089 seconds
#
# Revision: 0
# Processed by: cddbd v1.4PL0 Copyright (c) Steve Scherf et al.
# Submitted via: ExactAudioCopy v0.90b4
#
DISCID=920ff70c
DTITLE=Dutch Tilders and The Blues Club - One More Time
DYEAR=2001
DGENRE=Blues
TTITLE0=intro
TTITLE1=corrine corrina
TTITLE2=trouble in mind
TTITLE3=flip flop fly
TTITLE4=smokin' woman
TTITLE5=please send me someone to love
TTITLE6=high heel sneakers
TTITLE7=willie mae
TTITLE8=kansas city - feel so good
TTITLE9=sad dog
TTITLE10=house of the rising sun
TTITLE11=baby please don't go
EXTD=
EXTT0=
EXTT1=
EXTT2=
EXTT3=
EXTT4=
EXTT5=
EXTT6=
EXTT7=
EXTT8=
EXTT9=
EXTT10=
EXTT11=
PLAYORDER=
